<mxfile host="app.diagrams.net" modified="2021-04-09T12:04:59.908Z" agent="5.0 (Windows NT 10.0; Win64; x64) AppleWebKit/537.36 (KHTML, like Gecko) Chrome/89.0.4389.114 Safari/537.36 Edg/89.0.774.68" etag="FetHqwvyPd7TQHXlR36L" version="14.5.8" type="github">
  <diagram id="4TYuA45utLdYqSYtZhq1" name="Page-1">
    <mxGraphModel dx="1038" dy="580" grid="1" gridSize="10" guides="1" tooltips="1" connect="1" arrows="1" fold="1" page="1" pageScale="1" pageWidth="827" pageHeight="1169" math="0" shadow="0">
      <root>
        <mxCell id="0" />
        <mxCell id="1" parent="0" />
        <mxCell id="pJ1g8q2q28O3aV48dBda-1" value="查看结果" style="rounded=0;whiteSpace=wrap;html=1;" parent="1" vertex="1">
          <mxGeometry x="380" y="216.25" width="120" height="50" as="geometry" />
        </mxCell>
        <mxCell id="pJ1g8q2q28O3aV48dBda-2" value="完成作业" style="rounded=0;whiteSpace=wrap;html=1;" parent="1" vertex="1">
          <mxGeometry x="380" y="130" width="120" height="50" as="geometry" />
        </mxCell>
        <mxCell id="pJ1g8q2q28O3aV48dBda-3" value="科目设置" style="rounded=0;whiteSpace=wrap;html=1;" parent="1" vertex="1">
          <mxGeometry x="20" y="80" width="120" height="50" as="geometry" />
        </mxCell>
        <mxCell id="pJ1g8q2q28O3aV48dBda-4" value="作业组装" style="rounded=0;whiteSpace=wrap;html=1;" parent="1" vertex="1">
          <mxGeometry x="20" y="215" width="120" height="50" as="geometry" />
        </mxCell>
        <mxCell id="pJ1g8q2q28O3aV48dBda-5" value="题目设计" style="rounded=0;whiteSpace=wrap;html=1;" parent="1" vertex="1">
          <mxGeometry x="20" y="150" width="120" height="50" as="geometry" />
        </mxCell>
        <mxCell id="pJ1g8q2q28O3aV48dBda-6" value="学生端" style="rounded=0;whiteSpace=wrap;html=1;" parent="1" vertex="1">
          <mxGeometry x="290" y="172.5" width="50" height="137.5" as="geometry" />
        </mxCell>
        <mxCell id="pJ1g8q2q28O3aV48dBda-7" value="教师端" style="rounded=0;whiteSpace=wrap;html=1;" parent="1" vertex="1">
          <mxGeometry x="170" y="170" width="50" height="140" as="geometry" />
        </mxCell>
        <mxCell id="pJ1g8q2q28O3aV48dBda-8" value="任务下达" style="rounded=0;whiteSpace=wrap;html=1;" parent="1" vertex="1">
          <mxGeometry x="20" y="280" width="120" height="50" as="geometry" />
        </mxCell>
        <mxCell id="pJ1g8q2q28O3aV48dBda-9" value="错题回顾" style="rounded=0;whiteSpace=wrap;html=1;" parent="1" vertex="1">
          <mxGeometry x="380" y="290" width="120" height="50" as="geometry" />
        </mxCell>
        <mxCell id="pJ1g8q2q28O3aV48dBda-10" value="学生管理" style="rounded=0;whiteSpace=wrap;html=1;" parent="1" vertex="1">
          <mxGeometry x="20" y="350" width="120" height="50" as="geometry" />
        </mxCell>
        <mxCell id="pJ1g8q2q28O3aV48dBda-11" value="" style="endArrow=none;html=1;" parent="1" edge="1">
          <mxGeometry width="50" height="50" relative="1" as="geometry">
            <mxPoint x="142" y="380" as="sourcePoint" />
            <mxPoint x="140" y="105" as="targetPoint" />
            <Array as="points">
              <mxPoint x="170" y="240" />
            </Array>
          </mxGeometry>
        </mxCell>
        <mxCell id="pJ1g8q2q28O3aV48dBda-12" value="" style="endArrow=none;html=1;entryX=1;entryY=0.5;entryDx=0;entryDy=0;exitX=1;exitY=0.5;exitDx=0;exitDy=0;" parent="1" source="pJ1g8q2q28O3aV48dBda-8" target="pJ1g8q2q28O3aV48dBda-5" edge="1">
          <mxGeometry width="50" height="50" relative="1" as="geometry">
            <mxPoint x="380" y="270" as="sourcePoint" />
            <mxPoint x="430" y="220" as="targetPoint" />
            <Array as="points">
              <mxPoint x="170" y="240" />
            </Array>
          </mxGeometry>
        </mxCell>
        <mxCell id="pJ1g8q2q28O3aV48dBda-13" value="" style="endArrow=none;html=1;entryX=1;entryY=0.5;entryDx=0;entryDy=0;" parent="1" target="pJ1g8q2q28O3aV48dBda-4" edge="1">
          <mxGeometry width="50" height="50" relative="1" as="geometry">
            <mxPoint x="170" y="240" as="sourcePoint" />
            <mxPoint x="430" y="220" as="targetPoint" />
          </mxGeometry>
        </mxCell>
        <mxCell id="pJ1g8q2q28O3aV48dBda-17" value="" style="endArrow=classic;startArrow=classic;html=1;entryX=0;entryY=0.5;entryDx=0;entryDy=0;exitX=1;exitY=0.5;exitDx=0;exitDy=0;" parent="1" source="pJ1g8q2q28O3aV48dBda-7" target="pJ1g8q2q28O3aV48dBda-6" edge="1">
          <mxGeometry width="50" height="50" relative="1" as="geometry">
            <mxPoint x="240" y="280" as="sourcePoint" />
            <mxPoint x="290" y="230" as="targetPoint" />
          </mxGeometry>
        </mxCell>
        <mxCell id="pJ1g8q2q28O3aV48dBda-20" value="信息交互" style="text;html=1;align=center;verticalAlign=middle;resizable=0;points=[];autosize=1;" parent="1" vertex="1">
          <mxGeometry x="230" y="210" width="60" height="20" as="geometry" />
        </mxCell>
        <mxCell id="pJ1g8q2q28O3aV48dBda-22" value="" style="endArrow=none;html=1;entryX=0;entryY=0.5;entryDx=0;entryDy=0;exitX=0;exitY=0.5;exitDx=0;exitDy=0;" parent="1" source="pJ1g8q2q28O3aV48dBda-9" target="pJ1g8q2q28O3aV48dBda-2" edge="1">
          <mxGeometry width="50" height="50" relative="1" as="geometry">
            <mxPoint x="380" y="270" as="sourcePoint" />
            <mxPoint x="430" y="220" as="targetPoint" />
            <Array as="points">
              <mxPoint x="340" y="240" />
            </Array>
          </mxGeometry>
        </mxCell>
        <mxCell id="pJ1g8q2q28O3aV48dBda-23" value="" style="endArrow=none;html=1;exitX=1;exitY=0.5;exitDx=0;exitDy=0;entryX=0;entryY=0.5;entryDx=0;entryDy=0;" parent="1" source="pJ1g8q2q28O3aV48dBda-6" target="pJ1g8q2q28O3aV48dBda-1" edge="1">
          <mxGeometry width="50" height="50" relative="1" as="geometry">
            <mxPoint x="380" y="270" as="sourcePoint" />
            <mxPoint x="430" y="220" as="targetPoint" />
          </mxGeometry>
        </mxCell>
      </root>
    </mxGraphModel>
  </diagram>
</mxfile>
